<?xml version="1.0" standalone="no"?>
<svg xmlns="http://www.w3.org/2000/svg" viewBox="0 0 170.3933846153846 53" width="170.3933846153846" height="53"><rect fill="none" stroke="#fea701" stroke-width="3" width="167.3933846153846" height="50" x="1.5" y="1.5"></rect><g fill="#fe4e01" color="#fe4e01" transform="translate(12, 12) scale(0.5576924)"><svg width="41.0" height="52.0" x="0.0" y="0.0" viewBox="0 0 41 52"><g fill="none" fill-rule="evenodd"><path fill="currentColor" d="M33.708 50.177c.078.164.114.349.084.528a.874.874 0 0 1-.863.735H17.843a.637.637 0 0 1-.45-1.087l2.985-2.987c.264-.264.624-.412.997-.412h3.062a1.57 1.57 0 0 0 1.108-.458l3.223-3.223a.819.819 0 0 1 1.318.228l3.622 6.676zm-7.634-13.111l-2.318-13.818h.76c.428 0 .824-.288.9-.709a.872.872 0 0 0-.857-1.033h-.533a.385.385 0 0 1-.385-.385V17.67c0-.176.125-.33.298-.36.405-.068.739-.393.76-.811a.871.871 0 0 0-.87-.918h-.188v-.784a.871.871 0 0 0-.344-.693l-2.614-1.987a.872.872 0 0 0-1.054 0l-2.615 1.987a.871.871 0 0 0-.344.693v.785h-.14c-.409 0-.796.258-.893.656-.132.54.254 1.076.772 1.084.204.003.257.11.261.323v3.477a.384.384 0 0 1-.384.385h-.491c-.427 0-.823.289-.899.71a.872.872 0 0 0 .857 1.032h.803L14.23 37.114a.377.377 0 0 1-.502.292C6.343 34.646 1.187 27.276 1.79 18.813c.643-9.008 7.864-16.295 16.867-17.01C29.483.94 38.569 9.507 38.569 20.155c0 7.795-4.871 14.47-11.728 17.152-.058.024-.1.048-.176.068-.252.068-.485.02-.591-.31zm-3.86-9.822a.278.278 0 0 1 .47.15l.434 2.592a1.12 1.12 0 0 1-.312.977l-6.109 6.109a.377.377 0 0 1-.638-.33l.58-3.457a1.78 1.78 0 0 1 .497-.964l5.077-5.077zm-3.302-3.996h2.679a.47.47 0 0 1 .463.392l.111.66a.885.885 0 0 1-.248.775l-4.028 4.028a.298.298 0 0 1-.505-.26l.841-5.014a.696.696 0 0 1 .687-.58zm-.5-7.667v-.163c0-.119.056-.231.151-.302L20.03 14a.207.207 0 0 1 .251 0l1.467 1.115a.38.38 0 0 1 .15.302v.163h-3.485zm.49 1.743h2.508c.27 0 .488.218.488.489v3.204c0 .27-.218.489-.488.489h-2.508a.489.489 0 0 1-.49-.49v-3.203c0-.27.22-.49.49-.49zM15.28 41.382c.056-.336.216-.645.456-.886l7.206-7.206a.455.455 0 0 1 .77.247l.605 3.605a.624.624 0 0 1-.178.549l-.04.039-1.255 1.255a.07.07 0 0 1-.12-.05v-.885c0-.428-.288-.824-.709-.899a.872.872 0 0 0-1.033.857v2.666c0 .154-.116.334-.316.334h-3.483c-.42 0-.823.167-1.121.465l-.736.736c-.07.069-.187.008-.17-.088l.124-.739zM19.054.03C8.947.57.725 8.672.046 18.771-.57 27.94 4.988 35.92 12.964 38.977c.52.2.83.735.738 1.284l-.578 3.448a2.682 2.682 0 0 1-.748 1.452l-4.792 4.791a.877.877 0 0 0 .047 1.28.87.87 0 0 0 .586.208h5.011c.682 0 1.337-.271 1.82-.754l4.971-4.972c.322-.322.76-.502 1.215-.502h2.75c.533 0 1.045-.213 1.423-.59l3.333-3.333c.304-.304.385-.768.199-1.157l-.517-1.089a.464.464 0 0 1 .227-.619c6.88-3.21 11.664-10.188 11.664-18.268C40.312 8.676 30.666-.59 19.054.03z"></path></g></svg></g><line x1="45.366" y1="0" x2="45.366" y2="100%" stroke="#fea701" stroke-width="3"></line><path fill="#fe4e01" fill-rule="nonzero" d="M9.12 11.88L12.94 18.77L9.07 18.77L5.74 12.43L3.34 12.43L3.34 18.77L0 18.77L0 5.35Q0 3.43 0.89 2.56Q1.78 1.68 3.86 1.68L3.86 1.68L6.70 1.68Q9.24 1.68 10.74 3.23Q12.24 4.78 12.24 7.15L12.24 7.15Q12.24 8.88 11.34 10.14Q10.44 11.40 9.12 11.88L9.12 11.88ZM6.48 9.65Q7.54 9.65 8.22 8.92Q8.90 8.18 8.90 7.09Q8.90 6 8.24 5.33Q7.58 4.66 6.48 4.66L6.48 4.66L4.82 4.66Q3.34 4.66 3.34 6.17L3.34 6.17L3.34 9.65L6.48 9.65ZM25.73 12.65L25.73 12.65L17.81 12.65Q17.81 14.74 18.36 15.61Q18.91 16.49 20.69 16.49L20.69 16.49Q21.94 16.49 22.44 15.88Q22.94 15.26 22.94 13.99L22.94 13.99L25.75 13.99Q25.75 16.70 24.41 17.89Q23.06 19.08 20.76 19.08L20.76 19.08Q18.50 19.08 17.22 18.42Q15.94 17.76 15.29 16.09Q14.64 14.42 14.64 11.23Q14.64 8.04 16.10 6.47Q17.57 4.90 20.57 4.90L20.57 4.90Q25.78 4.90 25.78 10.68L25.78 10.68Q25.78 11.30 25.73 12.65ZM17.81 10.51L17.81 10.51L22.94 10.51Q22.94 8.62 22.39 7.99Q21.84 7.37 20.53 7.37Q19.22 7.37 18.52 8.02Q17.81 8.66 17.81 10.51ZM20.69 0L23.98 0L22.20 2.54Q21.38 3.70 20.35 3.70L20.35 3.70Q19.68 3.70 19.68 3.07L19.68 3.07Q19.68 2.83 19.78 2.54L19.78 2.54L20.69 0ZM34.42 5.59L34.42 7.97L31.87 7.97L31.87 18.77L28.75 18.77L28.75 7.97L27.46 7.97L27.46 5.59L28.75 5.59L28.75 4.27Q28.75 2.81 29.69 1.75Q30.62 0.70 32.40 0.70L32.40 0.70L34.42 0.70L34.42 3.34L32.95 3.34Q31.87 3.34 31.87 4.46L31.87 4.46L31.87 5.59L34.42 5.59ZM52.20 11.59L51.05 11.59L51.05 9.05L57.50 9.05L57.50 11.59L55.30 11.59Q55.30 11.90 55.30 12.78Q55.30 13.66 55.08 14.87Q54.86 16.08 54.41 16.88Q53.95 17.69 53.16 18.14Q52.37 18.60 51.48 18.76Q50.59 18.91 49.30 18.91L49.30 18.91Q46.18 18.91 44.60 17.63Q43.03 16.34 43.03 14.06L43.03 14.06Q43.03 12.77 43.45 11.74Q43.87 10.70 45.05 9.79L45.05 9.79Q43.68 8.21 43.68 5.88Q43.68 3.55 45.08 2.44Q46.49 1.32 49.21 1.32Q51.94 1.32 53.33 2.64Q54.72 3.96 54.72 6.74L54.72 6.74L51.58 6.74Q51.58 5.23 51.08 4.72Q50.59 4.20 49.30 4.20Q48 4.20 47.45 4.79Q46.90 5.38 46.90 5.86L46.90 5.86Q46.90 7.27 47.50 8.35L47.50 8.35Q48.48 7.92 48.74 7.82L48.74 7.82L49.32 10.49Q47.95 11.06 47.17 11.82Q46.39 12.58 46.39 13.76Q46.39 14.95 47.05 15.49Q47.71 16.03 49.36 16.03Q51 16.03 51.58 15.08Q52.15 14.14 52.20 11.59L52.20 11.59ZM74.14 12.14L74.14 12.14L77.23 12.14Q77.23 15.41 75.60 17.16Q73.97 18.91 70.99 18.91L70.99 18.91Q64.44 18.91 64.44 11.21L64.44 11.21L64.44 9.77Q64.44 3.70 67.80 2.16L67.80 2.16Q69.12 1.54 70.99 1.54L70.99 1.54Q73.73 1.54 75.44 3.04Q77.16 4.54 77.16 7.37L77.16 7.37L74.04 7.37Q73.78 5.95 73.10 5.23Q72.43 4.51 70.99 4.51L70.99 4.51Q69.31 4.51 68.50 5.57L68.50 5.57Q67.92 6.31 67.82 8.11L67.82 8.11Q67.78 8.69 67.78 9.67L67.78 9.67L67.78 11.16Q67.78 13.92 68.54 14.93L68.54 14.93Q69.34 15.94 71.00 15.94Q72.67 15.94 73.31 15.01Q73.94 14.09 74.14 12.14ZM87.24 12.58L87.24 12.58L87.24 11.33Q87.24 9.55 86.72 8.62Q86.21 7.68 84.58 7.68L84.58 7.68Q81.94 7.68 81.94 11.23L81.94 11.23L81.94 12.48Q81.94 16.30 84.58 16.30L84.58 16.30Q86.28 16.30 86.81 15.02L86.81 15.02Q87.24 14.02 87.24 12.58ZM90.36 11.86L90.36 11.86Q90.36 16.30 88.68 17.81L88.68 17.81Q87.26 19.10 84.58 19.10L84.58 19.10Q81.14 19.10 79.94 17.09L79.94 17.09Q78.82 15.24 78.82 11.86L78.82 11.86Q78.82 8.69 79.94 6.89L79.94 6.89Q81.19 4.87 84.49 4.87Q87.79 4.87 89.08 6.64Q90.36 8.40 90.36 11.86ZM96.16 15.54Q96.53 15.91 96.53 17.11Q96.53 18.31 96.16 18.70Q95.78 19.08 94.58 19.08Q93.38 19.08 93 18.70Q92.62 18.31 92.62 17.11Q92.62 15.91 93 15.54Q93.38 15.17 94.58 15.17Q95.78 15.17 96.16 15.54Z" transform="translate(58.866 17.116)"></path></svg>