<?xml version="1.0" standalone="no"?>
<!DOCTYPE svg PUBLIC "-//W3C//DTD SVG 20010904//EN"
 "http://www.w3.org/TR/2001/REC-SVG-20010904/DTD/svg10.dtd">
<svg version="1.0" xmlns="http://www.w3.org/2000/svg"
 width="300.000000pt" height="300.000000pt" viewBox="0 0 300.000000 300.000000"
 preserveAspectRatio="xMidYMid meet">
<metadata>
Created by potrace 1.14, written by Peter Selinger 2001-2017
</metadata>
<g transform="translate(0.000000,300.000000) scale(0.100000,-0.100000)"
fill="#000000" stroke="none">
<path d="M0 1500 l0 -1500 1500 0 1500 0 0 1500 0 1500 -1500 0 -1500 0 0
-1500z m1700 795 c208 -77 366 -251 414 -455 19 -80 20 -226 2 -303 -42 -171
-160 -326 -317 -414 -35 -20 -47 -32 -43 -43 22 -50 16 -64 -50 -129 l-65 -64
-75 -6 -76 -7 -95 -94 -95 -95 -85 -4 c-101 -4 -135 3 -135 27 0 10 36 53 81
97 91 89 104 114 114 202 l7 61 -63 32 c-235 119 -373 335 -373 585 0 280 180
528 444 613 87 28 108 31 230 27 85 -2 119 -8 180 -30z m161 -1455 c60 -109
70 -144 43 -154 -9 -3 -122 -6 -253 -6 -172 0 -240 3 -249 12 -10 10 1 26 50
75 l62 63 66 0 66 0 59 60 c38 38 67 60 78 58 12 -2 40 -41 78 -108z"/>
<path d="M1405 2269 c-217 -32 -402 -186 -476 -399 -31 -88 -33 -268 -5 -350
37 -107 77 -174 150 -245 70 -70 208 -156 220 -137 5 8 76 419 76 440 0 6 -10
12 -22 14 -32 4 -31 40 2 48 23 5 25 11 28 64 3 48 0 62 -17 77 -21 20 -19 44
5 53 8 3 14 14 14 24 0 17 89 92 109 92 20 0 111 -81 111 -99 0 -10 7 -21 15
-25 19 -7 19 -30 0 -46 -12 -10 -15 -29 -13 -74 3 -52 6 -61 23 -65 38 -7 41
-51 4 -51 -25 0 -25 -7 11 -223 38 -230 37 -227 56 -227 38 0 143 68 210 136
231 234 229 591 -5 825 -135 135 -313 195 -496 168z"/>
<path d="M1457 1862 c-26 -28 -21 -32 33 -32 54 0 62 10 28 34 -29 21 -41 20
-61 -2z"/>
<path d="M1434 1767 c-3 -8 -4 -39 -2 -68 l3 -54 50 0 50 0 0 65 0 65 -48 3
c-34 2 -49 -1 -53 -11z"/>
<path d="M1431 1568 c-14 -32 -33 -159 -26 -166 3 -3 37 25 76 64 54 54 69 74
67 94 -3 23 -8 25 -55 28 -47 3 -54 1 -62 -20z"/>
<path d="M1467 1372 c-87 -87 -88 -89 -99 -155 -6 -37 -8 -70 -4 -74 4 -4 54
40 111 97 110 109 113 116 99 189 -4 17 -9 31 -13 31 -4 0 -46 -40 -94 -88z"/>
<path d="M1457 1142 c-70 -70 -127 -135 -127 -145 0 -17 2 -17 26 2 21 16 41
21 90 21 l64 0 0 43 c0 24 6 52 14 62 16 23 46 14 46 -15 0 -25 12 -26 35 0
14 15 16 29 10 67 -9 66 -16 93 -24 93 -3 0 -64 -57 -134 -128z"/>
</g>
</svg>
